<?xml version="1.0" encoding="UTF-8" standalone="no"?>
<svg width="100px" height="107px" viewBox="0 0 100 107" version="1.1" xmlns="http://www.w3.org/2000/svg" xmlns:xlink="http://www.w3.org/1999/xlink">
    <!-- Generator: Sketch 41.2 (35397) - http://www.bohemiancoding.com/sketch -->
    <title>art-logo</title>
    <desc>Created with Sketch.</desc>
    <defs></defs>
    <g id="Page-1" stroke="none" stroke-width="1" fill="none" fill-rule="evenodd">
        <g id="art-logo">
            <g id="Group">
                <polygon id="Shape" fill="#1FA7DD" points="50 0.0922029703 99.9398515 94.2568069 82.4174505 106.343564 64.172401 94.2568069 50 52.002599 35.8277228 94.2568069 18.3216584 106.343564 0.0601485149 94.2568069"></polygon>
                <polyline id="Shape" fill="#1FA7DD" points="50 52.002599 35.8277228 94.2568069 18.3216584 106.343564 0.0601485149 94.2568069 37.9461634 22.8039604"></polyline>
                <polygon id="Shape" fill="#6ECEED" points="82.4174505 106.343564 64.172401 94.2568069 82.4174505 94.1910891"></polygon>
                <polygon id="Shape" fill="#1C75BC" points="77.5399752 52.0189356 50 52.0189356 31.7056931 34.5951733 50 34.5951733"></polygon>
                <polygon id="Shape" fill="#6ECEED" points="31.7056931 34.5951733 50 0.0922029703 50 34.5951733"></polygon>
                <polygon id="Shape" fill="#6ECEED" points="18.3216584 106.343564 0.0601485149 94.2568069 18.3216584 94.1910891"></polygon>
                <polygon id="Shape" fill="#1FA7DD" points="77.5399752 52.0189356 50 34.6772277 50 0.0922029703"></polygon>
                <polygon id="Shape" fill="#6ECEED" points="50 52.0189356 22.4601485 52.0189356 18.3216584 94.1910891"></polygon>
                <polygon id="Shape" fill="#1C75BC" points="50 52.0189356 18.3216584 94.1910891 18.3216584 106.343564 35.8277228 94.2568069"></polygon>
                <polygon id="Shape" fill="#6ECEED" points="50 52.0189356 82.4174505 94.1910891 99.9398515 94.2568069 77.5399752 52.0189356"></polygon>
                <polygon id="Shape" fill="#1C75BC" points="82.4174505 94.1910891 82.4174505 106.343564 99.9398515 94.2568069"></polygon>
            </g>
        </g>
    </g>
</svg>