<?xml version="1.0" encoding="UTF-8"?>
<svg width="41px" height="58px" viewBox="0 0 41 58" version="1.1" xmlns="http://www.w3.org/2000/svg" xmlns:xlink="http://www.w3.org/1999/xlink">
    <!-- Generator: Sketch 41.2 (35397) - http://www.bohemiancoding.com/sketch -->
    <title>lightbulb</title>
    <desc>Created with Sketch.</desc>
    <defs></defs>
    <g id="Page-1" stroke="none" stroke-width="1" fill="none" fill-rule="evenodd">
        <g id="lightbulb">
            <path d="M20.8,0 C18.0249861,0 15.4281371,0.534369656 13.009375,1.603125 C10.5906129,2.67188034 8.49063391,4.11561591 6.709375,5.934375 C4.92811609,7.75313409 3.52188016,9.89061272 2.490625,12.346875 C1.45936984,14.8031373 0.94375,17.4187361 0.94375,20.19375 C0.94375,24.393771 1.76874175,27.6281137 3.41875,29.896875 C5.06875825,32.1656363 6.69999194,34.0312427 8.3125,35.49375 C9.36250525,36.4312547 10.2062468,37.2281217 10.84375,37.884375 C11.4812532,38.5406283 11.8,39.2249964 11.8,39.9375 L11.8,42.975 C11.8,43.0125002 11.8093749,43.0499998 11.828125,43.0875 C11.8468751,43.1250002 11.85625,43.1624998 11.85625,43.2 L11.8,43.2 L11.8,48.43125 C11.8,51.1687637 12.6249917,53.3812416 14.275,55.06875 C15.9250082,56.7562584 18.1187363,57.6 20.85625,57.6 C23.5187633,57.6 25.6749918,56.7562584 27.325,55.06875 C28.9750082,53.3812416 29.8,51.1687637 29.8,48.43125 L29.8,43.2 L29.74375,43.2 C29.74375,43.1624998 29.7531249,43.1250002 29.771875,43.0875 C29.7906251,43.0499998 29.8,43.0125002 29.8,42.975 L29.8,39.9375 C29.8,38.8499946 30.1562464,37.9218788 30.86875,37.153125 C31.5812536,36.3843712 32.537494,35.4750053 33.7375,34.425 C35.3500081,32.9999929 36.9062425,31.2562603 38.40625,29.19375 C39.9062575,27.1312397 40.65625,24.1312697 40.65625,20.19375 C40.65625,17.4187361 40.1406302,14.8031373 39.109375,12.346875 C38.0781198,9.89061272 36.6718839,7.75313409 34.890625,5.934375 C33.1093661,4.11561591 31.0093871,2.67188034 28.590625,1.603125 C26.1718629,0.534369656 23.5750139,0 20.8,0 Z M20.74375,54 C19.0562416,54 17.7437547,53.50313 16.80625,52.509375 C15.8687453,51.51562 15.4,50.1562586 15.4,48.43125 L15.4,46.0125 C16.0375032,46.2375011 16.7968706,46.4249992 17.678125,46.575 C18.5593794,46.7250007 19.599994,46.8 20.8,46.8 C21.9625058,46.8 22.9937455,46.7156258 23.89375,46.546875 C24.7937545,46.3781242 25.5624968,46.1812511 26.2,45.95625 L26.2,48.43125 C26.2,50.1937588 25.7218798,51.5624951 24.765625,52.5375 C23.8093702,53.5125049 22.4687586,54 20.74375,54 Z M31.375,31.725 C30.1374938,32.7750053 28.9656305,33.9187438 27.859375,35.15625 C26.7531195,36.3937562 26.2,37.9874903 26.2,39.9375 L26.2,42.1875 C25.7499978,42.4125011 25.1031292,42.6468738 24.259375,42.890625 C23.4156208,43.1343762 22.2437575,43.25625 20.74375,43.25625 C19.2062423,43.25625 18.0250041,43.1437511 17.2,42.91875 C16.3749959,42.6937489 15.7750019,42.4687511 15.4,42.24375 L15.4,39.9375 C15.4,38.3999923 14.90313,37.0875054 13.909375,36 C12.91562,34.9124946 11.8562556,33.8625051 10.73125,32.85 C9.19374231,31.4624931 7.77813147,29.8593841 6.484375,28.040625 C5.19061853,26.2218659 4.54375,23.6062671 4.54375,20.19375 C4.54375,17.9062386 4.95624587,15.759385 5.78125,13.753125 C6.60625412,11.746865 7.74999269,9.98438259 9.2125,8.465625 C10.6750073,6.94686741 12.3999901,5.75625431 14.3875,4.89375 C16.3750099,4.03124569 18.5124886,3.6 20.8,3.6 C23.0875114,3.6 25.2249901,4.03124569 27.2125,4.89375 C29.2000099,5.75625431 30.9249927,6.94686741 32.3875,8.465625 C33.8500073,9.98438259 34.9937459,11.746865 35.81875,13.753125 C36.6437541,15.759385 37.05625,17.9062386 37.05625,20.19375 C37.05625,23.3062656 36.4843807,25.6781168 35.340625,27.309375 C34.1968693,28.9406332 32.8750075,30.4124934 31.375,31.725 Z" id="bulb" fill="#F6D366"></path>
            <path d="M18.386534,43.7498041 L18.386534,31.3326556 L13.8155962,24.5212541 C13.261691,23.6958501 13.5413485,23.3597437 14.4548604,23.7772263 L18.386534,25.5740344 L20.3646622,23.6563993 C20.7233904,23.3086414 21.2964232,23.3189363 21.6350312,23.6695209 L23.4744833,25.5740344 L27.0409117,23.8187482 C27.9296727,23.3813275 28.2266088,23.7064368 27.7008577,24.550163 L23.4744833,31.3326556 L23.4744833,43.7498041" id="filament" stroke="#F6D366" stroke-width="2.7"></path>
        </g>
    </g>
</svg>