<?xml version="1.0" encoding="UTF-8" standalone="no"?>
<svg width="78px" height="60px" viewBox="0 0 78 60" version="1.1" xmlns="http://www.w3.org/2000/svg" xmlns:xlink="http://www.w3.org/1999/xlink">
    <!-- Generator: Sketch 41.2 (35397) - http://www.bohemiancoding.com/sketch -->
    <title>Artboard 4</title>
    <desc>Created with Sketch.</desc>
    <defs>
        <rect id="path-1" x="15.8020833" y="40.78125" width="41.9392361" height="9.0625" rx="4"></rect>
        <mask id="mask-2" maskContentUnits="userSpaceOnUse" maskUnits="objectBoundingBox" x="0" y="0" width="41.9392361" height="9.0625" fill="white">
            <use xlink:href="#path-1"></use>
        </mask>
        <path d="M14.5539955,50.0822768 C14.8262053,48.4490179 16.39197,47.125 18.0419848,47.125 L54.6455152,47.125 C56.2996687,47.125 57.8628731,48.4584885 58.1335045,50.0822768 L58.9602455,55.0427232 C59.2324553,56.6759821 58.1197325,58 56.4561956,58 L16.2313044,58 C14.576146,58 13.4566231,56.6665115 13.7272545,55.0427232 L14.5539955,50.0822768 Z" id="path-3"></path>
        <mask id="mask-4" maskContentUnits="userSpaceOnUse" maskUnits="objectBoundingBox" x="0" y="0" width="45.3142875" height="10.875" fill="white">
            <use xlink:href="#path-3"></use>
        </mask>
    </defs>
    <g id="Page-1" stroke="none" stroke-width="1" fill="none" fill-rule="evenodd">
        <g id="Artboard-4" stroke="#7A479C">
            <g id="crystal-ball2" transform="translate(3.000000, 2.000000)">
                <circle id="Oval-8" stroke-width="3" cx="36.34375" cy="23.5625" r="22.65625"></circle>
                <use id="Rectangle-11" mask="url(#mask-2)" stroke-width="6" fill="#FFFFFF" xlink:href="#path-1"></use>
                <use id="Rectangle-12" mask="url(#mask-4)" stroke-width="6" xlink:href="#path-3"></use>
                <path d="M21.150843,16.761834 C21.150843,16.761834 22.6452926,10.636937 30.9744125,8.10332153" id="Path-14" stroke-width="3"></path>
                <g id="Group-2" transform="translate(36.187500, 21.000000) scale(-1, 1) translate(-36.187500, -21.000000) translate(0.687500, 0.000000)" stroke-width="2">
                    <polygon id="Star" transform="translate(6.287604, 6.287604) rotate(38.000000) translate(-6.287604, -6.287604) " points="6.28760371 8.91455516 2.12230283 10.4529046 3.66065226 6.28760371 2.12230283 2.12230283 6.28760371 3.66065226 10.4529046 2.12230283 8.91455516 6.28760371 10.4529046 10.4529046"></polygon>
                    <polygon id="Star" transform="translate(65.444199, 36.444199) rotate(46.000000) translate(-65.444199, -36.444199) " points="65.4441986 38.5518552 62.1022929 39.7861043 63.3365419 36.4441986 62.1022929 33.1022929 65.4441986 34.3365419 68.7861043 33.1022929 67.5518552 36.4441986 68.7861043 39.7861043"></polygon>
                </g>
            </g>
        </g>
    </g>
</svg>