<?xml version="1.0" encoding="UTF-8"?>
<svg width="59px" height="53px" viewBox="0 0 59 53" version="1.1" xmlns="http://www.w3.org/2000/svg" xmlns:xlink="http://www.w3.org/1999/xlink">
    <!-- Generator: Sketch 41.2 (35397) - http://www.bohemiancoding.com/sketch -->
    <title>heart</title>
    <desc>Created with Sketch.</desc>
    <defs></defs>
    <g id="Page-1" stroke="none" stroke-width="1" fill="none" fill-rule="evenodd">
        <path d="M16.3125,0.45703125 C14.1601455,0.45703125 12.1305434,0.806311611 10.2236328,1.50488281 C8.31672224,2.20345401 6.57032043,3.3456952 4.984375,4.93164062 C3.32290836,6.59310727 2.07682707,8.4622292 1.24609375,10.5390625 C0.41536043,12.6158958 0,14.739898 0,16.9111328 C0,19.0823676 0.41536043,21.2063698 1.24609375,23.2832031 C2.07682707,25.3600364 3.32290836,27.2291584 4.984375,28.890625 C5.43750227,29.3815129 6.74966362,30.8163944 8.92089844,33.1953125 C11.0921333,35.5742306 13.3860556,38.1041533 15.8027344,40.7851562 C18.2194131,43.4661592 20.4000554,45.8733617 22.3447266,48.0068359 L25.2617188,51.2070312 C25.7903672,51.7356797 26.3756478,52.1321601 27.0175781,52.3964844 C27.6595084,52.6608086 28.3391891,52.7929688 29.0566406,52.7929688 C29.7363315,52.7929688 30.4065722,52.6608086 31.0673828,52.3964844 C31.7281934,52.1321601 32.322914,51.7356797 32.8515625,51.2070312 L35.9951172,47.8369141 C38.0908308,45.590158 40.3941932,43.0979955 42.9052734,40.3603516 C45.4163537,37.6227077 47.7385961,35.1116651 49.8720703,32.8271484 C52.0055445,30.5426318 53.0911456,29.3815106 53.1289062,29.34375 C54.7903729,27.6822834 56.0364542,25.8037214 56.8671875,23.7080078 C57.6979208,21.6122942 58.1132812,19.488292 58.1132812,17.3359375 C58.1132812,15.183583 57.6979208,13.0595808 56.8671875,10.9638672 C56.0364542,8.86815358 54.7903729,7.00847166 53.1289062,5.38476562 C51.5052002,3.72329898 49.7493584,2.48665771 47.8613281,1.67480469 C45.9732979,0.86295167 43.9153757,0.45703125 41.6875,0.45703125 C39.5351455,0.45703125 37.3356232,1.17447199 35.0888672,2.609375 C32.8421112,4.04427801 30.8313891,5.66795969 29.0566406,7.48046875 C27.206371,5.66795969 25.1767689,4.04427801 22.9677734,2.609375 C20.758778,1.17447199 18.5403757,0.45703125 16.3125,0.45703125 Z M16.3125,4.08203125 C17.2187545,4.08203125 18.4931558,4.44075162 20.1357422,5.15820312 C21.7783285,5.87565463 23.9023307,7.51821633 26.5078125,10.0859375 L29.1132812,12.6347656 L31.6621094,10.0292969 C33.4746184,8.17902721 35.2776603,6.7252657 37.0712891,5.66796875 C38.8649178,4.6106718 40.4036394,4.08203125 41.6875,4.08203125 C43.4244879,4.08203125 45.0104095,4.39355157 46.4453125,5.01660156 C47.8802155,5.63965155 49.2584569,6.61197256 50.5800781,7.93359375 C51.8261781,9.17969373 52.7890591,10.6145752 53.46875,12.2382812 C54.1484409,13.8619873 54.4882812,15.561189 54.4882812,17.3359375 C54.4882812,19.110686 54.1484409,20.8098877 53.46875,22.4335938 C52.7890591,24.0572998 51.8261781,25.5110613 50.5800781,26.7949219 C50.5045569,26.8326825 49.8343162,27.5312432 48.5693359,28.890625 C47.3043557,30.2500068 45.699554,31.9869686 43.7548828,34.1015625 C41.8102116,36.2161564 39.6390094,38.5572788 37.2412109,41.125 C34.8434125,43.6927212 32.5117301,46.2226438 30.2460938,48.7148438 C30.0195301,48.9036468 29.7929699,49.0263669 29.5664063,49.0830078 C29.3398426,49.1396487 29.1699224,49.1679688 29.0566406,49.1679688 C28.9055982,49.1679688 28.726238,49.1396487 28.5185547,49.0830078 C28.3108714,49.0263669 28.0937511,48.9036468 27.8671875,48.7148438 C27.3007784,48.1106741 26.0169371,46.6852326 24.015625,44.4384766 C22.0143129,42.1917205 19.8714307,39.8128381 17.5869141,37.3017578 C15.3023974,34.7906775 13.1689552,32.4495551 11.1865234,30.2783203 C9.20409165,28.1070855 7.98633039,26.7949241 7.53320312,26.3417969 C6.28710314,25.0956969 5.32422215,23.6608154 4.64453125,22.0371094 C3.96484035,20.4134033 3.625,18.7142016 3.625,16.9394531 C3.625,15.1647047 3.96484035,13.4655029 4.64453125,11.8417969 C5.32422215,10.2180908 6.28710314,8.76432934 7.53320312,7.48046875 C8.77930311,6.27212938 10.1197845,5.40364848 11.5546875,4.875 C12.9895905,4.34635152 14.5755121,4.08203125 16.3125,4.08203125 Z" id="heart" fill="#C93F4C"></path>
    </g>
</svg>