<?xml version="1.0" encoding="UTF-8" standalone="no"?>
<svg width="60px" height="62px" viewBox="0 0 60 62" version="1.1" xmlns="http://www.w3.org/2000/svg" xmlns:xlink="http://www.w3.org/1999/xlink">
    <!-- Generator: Sketch 41.2 (35397) - http://www.bohemiancoding.com/sketch -->
    <title>Artboard 4</title>
    <desc>Created with Sketch.</desc>
    <defs></defs>
    <g id="Page-1" stroke="none" stroke-width="1" fill="none" fill-rule="evenodd">
        <g id="Artboard-4" stroke="#E9A527" stroke-width="3">
            <path d="M42.3781675,2.88332094 C42.6303582,2.39547625 42.3799163,2 41.8323607,2 L25.4352611,2 C24.8816296,2 24.264196,2.41563375 24.0556468,2.92966938 L12.2072314,32.1338481 C11.998923,32.6472904 12.2785948,33.0635175 12.8295078,33.0635175 L23.4333704,33.0635175 C23.9853526,33.0635175 24.2287586,33.4509072 23.9688789,33.9442558 L10.4613174,59.5866468 C10.2050883,60.0730652 10.3141722,60.1421494 10.6966851,59.7494491 L45.9431134,23.5643137 C46.3293325,23.1678086 46.1899583,22.8463777 45.6399982,22.8463777 L33.0607163,22.8463777 C32.5070914,22.8463777 32.2668167,22.4429973 32.5214336,21.9504592 L39.2863624,8.86419401 L42.3781675,2.88332094 Z" id="Path-23"></path>
        </g>
    </g>
</svg>