<?xml version="1.0" encoding="UTF-8" standalone="no"?>
<svg width="48px" height="39px" viewBox="0 0 48 39" version="1.1" xmlns="http://www.w3.org/2000/svg" xmlns:xlink="http://www.w3.org/1999/xlink">
    <!-- Generator: Sketch 41.2 (35397) - http://www.bohemiancoding.com/sketch -->
    <title>sign-out - FontAwesome</title>
    <desc>Created with Sketch.</desc>
    <defs></defs>
    <g id="Page-1" stroke="none" stroke-width="1" fill="none" fill-rule="evenodd">
        <path d="M17.9511027,35.6786029 C17.9511027,34.5636466 16.8572074,34.7143164 16.1559925,34.7143164 L8.07799623,34.7143164 C5.60971961,34.7143164 3.59022055,32.5446716 3.59022055,29.8928835 L3.59022055,8.67857909 C3.59022055,6.02679104 5.60971961,3.85714626 8.07799623,3.85714626 L17.0535476,3.85714626 C18.3157345,3.85714626 17.9511027,1.80803731 17.9511027,0.964286566 C17.9511027,0.452009328 17.5303738,0 17.0535476,0 L8.07799623,0 C3.61826915,0 0,3.88728022 0,8.67857909 L0,29.8928835 C0,34.6841824 3.61826915,38.5714626 8.07799623,38.5714626 L17.0535476,38.5714626 C18.3157345,38.5714626 17.9511027,36.5223537 17.9511027,35.6786029 Z M47.2500417,19.2857313 C47.2500417,18.8748609 47.039104,18.4881593 46.6774966,18.1981331 L30.284625,5.05027935 C29.9230175,4.76025317 29.4408742,4.59107122 28.928597,4.59107122 C27.8739085,4.59107122 27.0000238,5.29196784 27.0000238,6.13787755 L27.0000238,13.098506 L13.5000119,13.098506 C12.4453235,13.098506 11.5714388,13.7994026 11.5714388,14.6453123 L11.5714388,23.9261503 C11.5714388,24.77206 12.4453235,25.4729566 13.5000119,25.4729566 L27.0000238,25.4729566 L27.0000238,32.4335851 C27.0000238,33.2794948 27.8739085,33.9803914 28.928597,33.9803914 C29.4408742,33.9803914 29.9230175,33.8112095 30.284625,33.5211833 L46.6774966,20.3733295 C47.039104,20.0833033 47.2500417,19.6966017 47.2500417,19.2857313 Z" id="sign-out---FontAwesome" fill="#FFFFFF"></path>
    </g>
</svg>